<svg xmlns="http://www.w3.org/2000/svg" viewBox="0 0 100 100">
  <circle cx="50" cy="50" r="45" fill="#2c3e50" stroke="#ecf0f1" stroke-width="2"/>
  <g fill="#ecf0f1">
    <!-- Bagua symbol representation -->
    <rect x="35" y="20" width="30" height="4" rx="2"/>
    <rect x="35" y="28" width="13" height="4" rx="2"/>
    <rect x="52" y="28" width="13" height="4" rx="2"/>
    <rect x="35" y="36" width="30" height="4" rx="2"/>
    
    <rect x="35" y="48" width="13" height="4" rx="2"/>
    <rect x="52" y="48" width="13" height="4" rx="2"/>
    <rect x="35" y="56" width="30" height="4" rx="2"/>
    <rect x="35" y="64" width="13" height="4" rx="2"/>
    <rect x="52" y="64" width="13" height="4" rx="2"/>
    
    <!-- Yin Yang symbol -->
    <circle cx="50" cy="82" r="8" fill="#ecf0f1"/>
    <path d="M 50 74 A 8 8 0 0 1 50 90 A 4 4 0 0 0 50 82 A 4 4 0 0 1 50 74" fill="#2c3e50"/>
    <circle cx="50" cy="78" r="1.5" fill="#2c3e50"/>
    <circle cx="50" cy="86" r="1.5" fill="#ecf0f1"/>
  </g>
</svg>

